<svg xmlns="http://www.w3.org/2000/svg" xmlns:xlink="http://www.w3.org/1999/xlink" version="1.1" width="1000" height="1000" viewBox="0 0 1000 1000" xml:space="preserve">
<desc>Created with Fabric.js 3.5.0</desc>
<defs>
</defs>
<rect x="0" y="0" width="100%" height="100%" fill="rgba(102,51,102,0)"/>
<g transform="matrix(0.7102 0 0 0.7102 499.9832 499.9808)" id="739344">
<g style="" vector-effect="non-scaling-stroke">
		<g transform="matrix(0.1333 0 0 -0.1333 -0.1262 0.4296)">
<path style="stroke: none; stroke-width: 1; stroke-dasharray: none; stroke-linecap: butt; stroke-dashoffset: 0; stroke-linejoin: miter; stroke-miterlimit: 4; is-custom-font: none; font-file-url: none; fill: rgb(241,250,238); fill-rule: nonzero; opacity: 1;" transform=" translate(-4600.2029, -5275.4608)" d="M 4550 10537 c -31 -12 -302 -166 -1330 -757 c -179 -103 -480 -276 -670 -385 c -190 -109 -554 -318 -810 -465 c -256 -147 -665 -382 -910 -522 c -245 -141 -512 -294 -595 -342 c -82 -47 -162 -100 -177 -117 c -15 -18 -31 -52 -37 -78 c -14 -66 -24 -5133 -10 -5184 c 16 -60 52 -90 239 -198 c 96 -56 357 -208 580 -337 c 223 -129 587 -341 810 -470 c 223 -129 473 -274 555 -322 c 401 -233 540 -314 920 -535 c 226 -131 523 -303 660 -383 c 138 -80 286 -166 330 -192 c 411 -242 416 -245 481 -245 l 60 0 l 535 306 c 555 319 1109 637 1674 962 c 388 223 1500 860 1935 1109 c 168 97 321 191 341 210 c 26 25 39 50 47 84 c 15 69 26 5134 11 5187 c -16 58 -70 103 -245 203 c -162 93 -578 334 -1464 849 c -272 158 -607 353 -745 433 c -137 79 -317 184 -400 232 c -82 48 -472 274 -865 503 c -393 228 -731 424 -751 436 c -46 27 -123 35 -169 18 z m 866 -543 c 423 -246 879 -510 1014 -589 c 1089 -632 1677 -974 2110 -1225 c 278 -161 516 -303 529 -316 l 25 -23 l -2 -2058 c -3 -2546 -8 -3091 -30 -3116 c -8 -9 -128 -82 -266 -161 c -138 -79 -460 -264 -716 -411 c -256 -147 -726 -417 -1045 -600 c -319 -183 -715 -410 -880 -505 c -165 -95 -469 -269 -675 -388 c -206 -118 -485 -278 -619 -355 c -179 -103 -252 -141 -275 -140 c -19 1 -86 33 -176 86 c -80 46 -311 180 -515 299 c -896 520 -1838 1068 -2175 1263 c -201 117 -531 309 -735 427 c -203 118 -473 275 -600 348 c -126 73 -241 143 -254 156 l -25 23 l 2 2038 c 1 1121 5 2282 8 2580 c 7 534 7 543 28 561 c 12 11 345 205 741 432 c 396 228 988 567 1315 755 c 327 188 798 458 1045 600 c 625 358 888 509 1117 642 c 223 128 235 134 264 128 c 12 -3 367 -206 790 -451 z" stroke-linecap="round"/>
</g>
		<g transform="matrix(0.1333 0 0 -0.1333 275.1551 -503.4511)">
<path style="stroke: none; stroke-width: 1; stroke-dasharray: none; stroke-linecap: butt; stroke-dashoffset: 0; stroke-linejoin: miter; stroke-miterlimit: 4; is-custom-font: none; font-file-url: none; fill: rgb(241,250,238); fill-rule: nonzero; opacity: 1;" transform=" translate(-6664.1617, -9055.6003)" d="M 4673 10119 c 4 -41 9 -256 13 -479 c 4 -223 9 -436 13 -474 l 6 -69 l 330 -99 c 182 -54 422 -125 535 -159 c 113 -33 354 -105 535 -159 c 182 -54 422 -126 535 -159 c 1589 -473 2015 -599 2017 -598 c 1 1 -67 41 -150 88 c -638 362 -1265 718 -1732 984 c -1104 628 -1446 822 -1765 1003 c -179 101 -329 187 -334 190 c -5 3 -6 -27 -3 -69 z m 1202 -803 c 248 -23 251 -23 323 -60 l 72 -36 l 0 -93 l 0 -93 l 55 -23 c 63 -26 61 -23 70 -78 l 7 -43 l -64 29 l -63 29 l -3 -85 c -2 -75 -5 -84 -20 -78 c -89 33 -282 122 -282 130 c 0 5 14 39 30 74 c 17 35 27 67 23 71 c -4 4 -116 56 -248 115 c -132 59 -244 111 -248 115 c -4 4 16 16 45 27 c 29 12 53 21 53 22 c 0 0 113 -10 250 -23 z" stroke-linecap="round"/>
</g>
		<g transform="matrix(0.1333 0 0 -0.1333 181.5347 -521.7445)">
<path style="stroke: none; stroke-width: 1; stroke-dasharray: none; stroke-linecap: butt; stroke-dashoffset: 0; stroke-linejoin: miter; stroke-miterlimit: 4; is-custom-font: none; font-file-url: none; fill: rgb(241,250,238); fill-rule: nonzero; opacity: 1;" transform=" translate(-5961.5497, -9193.0683)" d="M 5805 9252 c 6 -7 258 -122 261 -119 c 8 9 55 110 52 112 c -4 4 -317 11 -313 7 z" stroke-linecap="round"/>
</g>
		<g transform="matrix(0.1333 0 0 -0.1333 -277.435 -502.7361)">
<path style="stroke: none; stroke-width: 1; stroke-dasharray: none; stroke-linecap: butt; stroke-dashoffset: 0; stroke-linejoin: miter; stroke-miterlimit: 4; is-custom-font: none; font-file-url: none; fill: rgb(241,250,238); fill-rule: nonzero; opacity: 1;" transform=" translate(-2519.7406, -9050.2379)" d="M 4430 10131 c -147 -84 -3279 -1845 -3725 -2094 c -172 -96 -223 -128 -181 -113 c 10 3 397 117 860 251 c 462 135 963 281 1111 325 c 149 43 659 192 1135 330 c 476 138 871 253 878 255 c 8 3 12 33 12 102 c 0 54 3 299 7 546 c 4 267 3 447 -3 447 c -5 0 -47 -22 -94 -49 z m -421 -460 c 21 -13 5 -46 -46 -91 l -46 -40 l 48 0 c 178 0 63 -223 -204 -395 c -217 -140 -519 -243 -569 -193 c -20 20 -13 77 15 126 c 36 62 172 197 250 249 c 50 33 58 42 43 46 c -25 6 -18 30 19 71 c 60 65 243 169 376 212 c 78 26 94 28 114 15 z m -1027 -624 l -373 -373 l -116 -47 c -64 -26 -118 -45 -120 -44 c -1 2 150 142 337 311 c 187 170 343 312 346 317 c 3 5 -30 -7 -73 -26 l -78 -35 l 39 35 c 21 19 68 48 104 65 c 36 17 102 55 147 84 c 67 45 134 82 155 85 c 3 1 -163 -167 -368 -372 z" stroke-linecap="round"/>
</g>
		<g transform="matrix(0.1333 0 0 -0.1333 -113.3371 -566.0273)">
<path style="stroke: none; stroke-width: 1; stroke-dasharray: none; stroke-linecap: butt; stroke-dashoffset: 0; stroke-linejoin: miter; stroke-miterlimit: 4; is-custom-font: none; font-file-url: none; fill: rgb(241,250,238); fill-rule: nonzero; opacity: 1;" transform=" translate(-3750, -9525.1886)" d="M 3760 9564 c -52 -24 -120 -78 -120 -96 c 0 -27 127 23 184 72 c 20 18 36 36 36 41 c 0 17 -44 9 -100 -17 z" stroke-linecap="round"/>
</g>
		<g transform="matrix(0.1333 0 0 -0.1333 -128.312 -535.4282)">
<path style="stroke: none; stroke-width: 1; stroke-dasharray: none; stroke-linecap: butt; stroke-dashoffset: 0; stroke-linejoin: miter; stroke-miterlimit: 4; is-custom-font: none; font-file-url: none; fill: rgb(241,250,238); fill-rule: nonzero; opacity: 1;" transform=" translate(-3637.7042, -9295.6778)" d="M 3696 9409 c -103 -42 -189 -114 -224 -185 c -22 -48 -11 -68 36 -60 c 56 10 173 70 227 118 c 48 43 87 110 78 135 c -7 19 -60 15 -117 -8 z" stroke-linecap="round"/>
</g>
		<g transform="matrix(0.1333 0 0 -0.1333 -290.9556 -146.5623)">
<path style="stroke: none; stroke-width: 1; stroke-dasharray: none; stroke-linecap: butt; stroke-dashoffset: 0; stroke-linejoin: miter; stroke-miterlimit: 4; is-custom-font: none; font-file-url: none; fill: rgb(241,250,238); fill-rule: nonzero; opacity: 1;" transform=" translate(-2418.343, -6378.5824)" d="M 4135 8825 c -176 -51 -707 -204 -1180 -340 c -473 -135 -1069 -307 -1325 -380 c -256 -73 -640 -184 -855 -245 c -214 -62 -393 -115 -397 -118 c -3 -4 11 -65 32 -137 c 21 -71 113 -389 205 -705 c 92 -316 189 -649 215 -740 c 27 -91 157 -538 290 -995 c 133 -456 263 -904 290 -995 c 26 -91 58 -201 70 -245 c 12 -44 25 -83 29 -87 c 4 -4 246 405 538 910 c 1007 1739 1865 3221 2218 3832 c 103 179 189 328 192 333 c 2 4 3 7 1 6 c -2 -1 -147 -43 -323 -94 z m -2302 -1385 c 74 -28 134 -74 174 -133 c 58 -86 64 -124 73 -437 c 5 -206 11 -294 21 -318 l 14 -33 l 204 295 l 203 295 l 122 -61 c 66 -33 122 -61 123 -62 c 5 -4 -648 -931 -658 -934 c -17 -6 -117 87 -163 151 c -103 146 -115 196 -126 532 c -5 143 -14 278 -20 299 c -50 169 -247 222 -354 95 c -63 -75 -83 -158 -51 -218 c 8 -16 35 -47 61 -69 c 25 -23 44 -45 42 -50 c -8 -22 -144 -222 -150 -222 c -4 0 -37 27 -72 61 c -137 127 -168 278 -94 447 c 54 122 178 267 281 326 c 118 69 250 82 370 36 z" stroke-linecap="round"/>
</g>
		<g transform="matrix(0.1333 0 0 -0.1333 289.2026 -145.3511)">
<path style="stroke: none; stroke-width: 1; stroke-dasharray: none; stroke-linecap: butt; stroke-dashoffset: 0; stroke-linejoin: miter; stroke-miterlimit: 4; is-custom-font: none; font-file-url: none; fill: rgb(241,250,238); fill-rule: nonzero; opacity: 1;" transform=" translate(-6769.5293, -6369.4978)" d="M 4730 8906 c 0 -2 29 -53 63 -113 c 35 -59 191 -328 347 -598 c 156 -269 347 -600 425 -735 c 158 -273 916 -1582 1033 -1785 c 41 -71 255 -440 474 -820 c 220 -379 443 -765 496 -857 c 54 -92 99 -168 102 -168 c 3 0 47 148 99 328 c 52 180 109 377 127 437 c 18 61 72 245 119 410 c 48 165 136 467 195 670 c 491 1685 602 2067 599 2069 c -2 1 -195 57 -429 124 c -234 67 -661 189 -950 272 c -289 83 -894 257 -1345 386 c -451 130 -936 269 -1077 310 c -249 71 -278 79 -278 70 z m 2304 -1116 c 86 -133 159 -185 262 -185 l 62 0 l 52 -93 c 29 -51 51 -94 49 -96 c -2 -2 -58 -25 -124 -51 c -66 -26 -322 -128 -568 -226 c -246 -98 -453 -179 -460 -179 c -12 0 -164 257 -156 264 c 2 1 191 69 419 151 c 228 81 418 150 422 154 c 3 3 -27 64 -69 136 c -41 71 -75 133 -76 138 c -2 8 109 53 135 56 c 4 1 27 -30 52 -69 z m 446 -1069 l 405 -57 l 73 -125 c 67 -115 71 -125 55 -137 c -10 -7 -150 -90 -310 -184 c -161 -94 -293 -175 -293 -180 c 0 -5 16 -37 36 -70 c 19 -34 31 -65 26 -70 c -12 -12 -153 -98 -160 -98 c -4 0 -24 32 -45 71 l -38 70 l -57 -32 c -31 -18 -88 -52 -127 -76 c -64 -39 -71 -41 -83 -25 c -17 22 -132 227 -132 235 c 0 3 56 37 125 74 c 69 37 125 71 125 75 c 0 3 -64 117 -141 252 c -78 136 -140 249 -137 251 c 2 2 47 25 99 49 c 77 37 101 44 134 40 c 22 -3 222 -31 445 -63 z" stroke-linecap="round"/>
</g>
		<g transform="matrix(0.1333 0 0 -0.1333 371.5564 -155.0043)">
<path style="stroke: none; stroke-width: 1; stroke-dasharray: none; stroke-linecap: butt; stroke-dashoffset: 0; stroke-linejoin: miter; stroke-miterlimit: 4; is-custom-font: none; font-file-url: none; fill: rgb(241,250,238); fill-rule: nonzero; opacity: 1;" transform=" translate(-7386.7459, -6442.4953)" d="M 7099 6573 c 33 -62 154 -270 161 -277 c 5 -5 101 41 230 110 c 260 140 272 120 -100 159 c -298 31 -304 31 -291 8 z" stroke-linecap="round"/>
</g>
		<g transform="matrix(0.1333 0 0 -0.1333 -0.0981 -136.0183)">
<path style="stroke: none; stroke-width: 1; stroke-dasharray: none; stroke-linecap: butt; stroke-dashoffset: 0; stroke-linejoin: miter; stroke-miterlimit: 4; is-custom-font: none; font-file-url: none; fill: rgb(241,250,238); fill-rule: nonzero; opacity: 1;" transform=" translate(-4600, -6299.5)" d="M 4284 8307 c -172 -298 -446 -774 -609 -1057 c -843 -1460 -1443 -2499 -1791 -3102 c -123 -213 -224 -390 -224 -393 c 0 -3 1323 -5 2940 -5 c 1617 0 2940 2 2940 5 c 0 3 -102 182 -227 398 c -124 216 -249 433 -278 482 c -29 50 -155 268 -280 485 c -568 984 -999 1731 -1247 2160 c -148 256 -411 713 -586 1017 c -174 304 -319 552 -322 552 c -3 0 -145 -244 -316 -542 z m -285 -2138 c 203 -25 384 -146 457 -304 c 77 -167 76 -383 -3 -539 c -60 -118 -150 -207 -363 -358 c -204 -145 -307 -226 -339 -267 l -33 -41 l 401 0 l 401 0 l 0 -160 l 0 -160 l -629 0 l -629 0 l 5 48 c 12 140 72 315 142 417 c 48 69 179 187 361 323 c 284 214 343 281 370 418 c 19 98 -12 204 -77 266 c -95 90 -299 74 -367 -29 c -30 -46 -56 -140 -56 -205 l 0 -48 l -178 0 l -178 0 l 3 38 c 8 96 27 193 50 257 c 96 265 329 386 662 344 z m 1496 -4 c 164 -35 274 -122 349 -277 c 88 -180 122 -403 113 -727 c -6 -222 -22 -331 -71 -473 c -73 -215 -183 -324 -376 -374 c -88 -23 -273 -23 -359 0 c -215 58 -331 194 -401 469 c -72 286 -61 750 25 1002 c 75 220 215 352 407 384 c 84 14 237 12 313 -4 z" stroke-linecap="round"/>
</g>
		<g transform="matrix(0.1333 0 0 -0.1333 97.0757 5.9481)">
<path style="stroke: none; stroke-width: 1; stroke-dasharray: none; stroke-linecap: butt; stroke-dashoffset: 0; stroke-linejoin: miter; stroke-miterlimit: 4; is-custom-font: none; font-file-url: none; fill: rgb(241,250,238); fill-rule: nonzero; opacity: 1;" transform=" translate(-5328.1327, -5235.2277)" d="M 5240 5869 c -55 -22 -105 -89 -129 -174 c -36 -129 -53 -509 -30 -713 c 31 -291 87 -382 238 -390 c 144 -8 211 65 248 274 c 25 142 25 606 0 747 c -35 198 -96 268 -231 266 c -39 0 -82 -5 -96 -10 z" stroke-linecap="round"/>
</g>
		<g transform="matrix(0.1333 0 0 -0.1333 -502.1322 0.9858)">
<path style="stroke: none; stroke-width: 1; stroke-dasharray: none; stroke-linecap: butt; stroke-dashoffset: 0; stroke-linejoin: miter; stroke-miterlimit: 4; is-custom-font: none; font-file-url: none; fill: rgb(241,250,238); fill-rule: nonzero; opacity: 1;" transform=" translate(-834.1553, -5272.0126)" d="M 251 5277 l -1 -2378 l 33 24 c 17 14 280 197 582 407 c 303 210 551 383 553 385 c 3 3 -14 62 -128 445 c -45 151 -124 417 -175 590 c -52 173 -151 506 -220 740 c -69 234 -173 583 -230 775 c -57 193 -143 481 -190 640 c -47 160 -115 389 -151 510 c -36 121 -67 225 -69 230 c -2 6 -4 -1060 -4 -2368 z m 569 -225 c 67 -261 119 -479 117 -487 c -3 -7 -26 -21 -51 -30 c -44 -17 -46 -17 -91 5 c -34 16 -67 48 -124 119 c -78 96 -143 161 -161 161 c -17 0 -49 -38 -56 -65 c -13 -52 2 -178 28 -236 c 29 -63 46 -74 77 -52 c 12 8 25 13 28 9 c 3 -3 19 -49 35 -103 l 29 -98 l -22 -17 c -32 -27 -85 -23 -115 7 c -54 54 -129 260 -155 426 c -14 92 -6 249 16 311 c 21 61 68 102 104 93 c 36 -9 69 -42 177 -177 c 83 -104 114 -134 114 -112 c 0 6 -20 83 -126 472 l -33 123 l 25 42 c 50 81 56 89 59 85 c 2 -2 58 -216 125 -476 z m 249 -967 l 28 -105 l -61 -47 c -34 -26 -102 -80 -153 -120 l -91 -72 l 32 -110 l 33 -111 l -24 -16 c -14 -8 -26 -14 -27 -12 c -2 2 -15 35 -30 75 c -30 78 -64 123 -95 123 c -16 0 -24 14 -41 71 l -22 72 l 29 28 c 90 89 388 348 391 339 c 2 -5 16 -57 31 -115 z" stroke-linecap="round"/>
</g>
		<g transform="matrix(0.1333 0 0 -0.1333 503.8463 -0.079)">
<path style="stroke: none; stroke-width: 1; stroke-dasharray: none; stroke-linecap: butt; stroke-dashoffset: 0; stroke-linejoin: miter; stroke-miterlimit: 4; is-custom-font: none; font-file-url: none; fill: rgb(241,250,238); fill-rule: nonzero; opacity: 1;" transform=" translate(-8378.9938, -5280)" d="M 8955 7638 c -4 -11 -310 -1042 -455 -1533 c -21 -71 -70 -238 -110 -370 c -39 -132 -129 -436 -200 -675 c -71 -239 -190 -640 -264 -890 c -74 -250 -134 -455 -133 -456 c 1 0 262 -181 580 -402 c 318 -221 581 -402 585 -402 c 4 0 7 1066 7 2370 c 0 1303 -1 2370 -3 2370 c -1 0 -5 -6 -7 -12 z m -488 -2564 c 48 -28 108 -96 186 -211 c 145 -213 217 -452 217 -713 c -1 -291 -74 -430 -180 -342 l -33 29 l 12 134 c 19 204 20 210 42 199 c 61 -33 77 138 28 295 c -22 70 -113 237 -104 190 c 39 -205 -13 -452 -105 -497 c -48 -23 -85 -13 -134 36 c -144 144 -222 480 -163 701 c 19 70 54 145 80 173 c 44 48 80 49 154 6 z" stroke-linecap="round"/>
</g>
		<g transform="matrix(0.1333 0 0 -0.1333 512.9977 76.5323)">
<path style="stroke: none; stroke-width: 1; stroke-dasharray: none; stroke-linecap: butt; stroke-dashoffset: 0; stroke-linejoin: miter; stroke-miterlimit: 4; is-custom-font: none; font-file-url: none; fill: rgb(241,250,238); fill-rule: nonzero; opacity: 1;" transform=" translate(-8447.5097, -4705.9538)" d="M 8377 4905 c -47 -46 -48 -192 -4 -286 c 33 -70 91 -131 120 -127 c 11 2 29 16 41 31 c 18 25 21 42 20 125 c 0 82 -4 106 -26 152 c -46 101 -111 146 -151 105 z" stroke-linecap="round"/>
</g>
		<g transform="matrix(0.1333 0 0 -0.1333 0.1685 444.6119)">
<path style="stroke: none; stroke-width: 1; stroke-dasharray: none; stroke-linecap: butt; stroke-dashoffset: 0; stroke-linejoin: miter; stroke-miterlimit: 4; is-custom-font: none; font-file-url: none; fill: rgb(241,250,238); fill-rule: nonzero; opacity: 1;" transform=" translate(-4602, -1945)" d="M 2206 2978 c 301 -337 631 -707 734 -823 c 103 -115 472 -529 820 -920 c 349 -390 679 -761 734 -823 c 55 -61 103 -112 106 -112 c 4 0 180 195 392 433 c 376 421 614 689 1023 1147 c 110 124 479 538 819 920 c 341 382 639 716 665 743 l 45 47 l -2942 0 l -2942 0 l 546 -612 z m 2556 49 c 161 -78 247 -243 236 -457 c -9 -158 -70 -294 -164 -362 l -44 -31 l 41 -44 c 59 -65 73 -103 73 -208 c 1 -84 -2 -94 -34 -154 c -65 -120 -168 -175 -330 -175 c -144 0 -245 45 -309 138 c -84 122 -78 301 14 390 l 43 42 l -52 46 c -124 110 -187 336 -141 513 c 34 128 124 248 221 295 c 87 42 132 50 254 47 c 109 -3 119 -5 192 -40 z" stroke-linecap="round"/>
</g>
		<g transform="matrix(0.1333 0 0 -0.1333 -8.1498 365.2614)">
<path style="stroke: none; stroke-width: 1; stroke-dasharray: none; stroke-linecap: butt; stroke-dashoffset: 0; stroke-linejoin: miter; stroke-miterlimit: 4; is-custom-font: none; font-file-url: none; fill: rgb(241,250,238); fill-rule: nonzero; opacity: 1;" transform=" translate(-4538.9239, -2540.4795)" d="M 4451 2763 c -68 -34 -106 -126 -99 -242 c 9 -142 76 -221 189 -221 c 75 0 133 39 163 110 c 36 87 28 232 -16 296 c -48 69 -158 96 -237 57 z" stroke-linecap="round"/>
</g>
		<g transform="matrix(0.1333 0 0 -0.1333 -8.2912 446.4321)">
<path style="stroke: none; stroke-width: 1; stroke-dasharray: none; stroke-linecap: butt; stroke-dashoffset: 0; stroke-linejoin: miter; stroke-miterlimit: 4; is-custom-font: none; font-file-url: none; fill: rgb(241,250,238); fill-rule: nonzero; opacity: 1;" transform=" translate(-4537.8529, -1931.7205)" d="M 4474 2076 c -73 -33 -104 -134 -66 -219 c 24 -55 67 -81 132 -81 c 92 0 143 55 144 154 c 1 95 -44 150 -131 157 c -28 2 -61 -3 -79 -11 z" stroke-linecap="round"/>
</g>
		<g transform="matrix(0.1333 0 0 -0.1333 -302.5355 443.6133)">
<path style="stroke: none; stroke-width: 1; stroke-dasharray: none; stroke-linecap: butt; stroke-dashoffset: 0; stroke-linejoin: miter; stroke-miterlimit: 4; is-custom-font: none; font-file-url: none; fill: rgb(241,250,238); fill-rule: nonzero; opacity: 1;" transform=" translate(-2331.4872, -1952.5058)" d="M 898 3142 c -322 -213 -583 -390 -580 -394 c 6 -6 1424 -841 3007 -1771 c 567 -333 962 -565 995 -586 l 25 -15 l -21 25 c -11 13 -234 260 -495 549 c -510 564 -1675 1855 -1978 2190 c -296 327 -354 390 -360 389 c -3 0 -270 -175 -593 -387 z m 885 -198 c 40 -9 100 -29 134 -46 c 186 -87 408 -353 389 -466 c -8 -50 -33 -81 -95 -119 c -117 -70 -349 -103 -495 -69 c -142 34 -291 129 -429 276 c -126 134 -154 219 -98 298 c 80 109 381 173 594 126 z m 903 -891 c 26 -32 54 -65 61 -74 c 12 -14 -9 -22 -205 -78 c -120 -33 -224 -61 -230 -61 c -22 0 -12 -14 64 -91 l 76 -76 l -43 -11 c -40 -10 -46 -9 -77 16 c -121 97 -170 122 -245 122 c -33 0 -46 8 -98 57 c -32 31 -57 58 -55 61 c 6 5 675 190 692 191 c 6 1 33 -25 60 -56 z" stroke-linecap="round"/>
</g>
		<g transform="matrix(0.1333 0 0 -0.1333 -378.5101 360.7281)">
<path style="stroke: none; stroke-width: 1; stroke-dasharray: none; stroke-linecap: butt; stroke-dashoffset: 0; stroke-linejoin: miter; stroke-miterlimit: 4; is-custom-font: none; font-file-url: none; fill: rgb(241,250,238); fill-rule: nonzero; opacity: 1;" transform=" translate(-1761.2597, -2574.4977)" d="M 1671 2725 c -159 -35 -251 -82 -251 -129 c 0 -55 105 -153 187 -177 c 130 -36 465 41 492 114 c 20 50 -48 142 -134 183 c -42 20 -65 24 -140 23 c -49 0 -119 -7 -154 -14 z" stroke-linecap="round"/>
</g>
		<g transform="matrix(0.1333 0 0 -0.1333 304.1997 443.4808)">
<path style="stroke: none; stroke-width: 1; stroke-dasharray: none; stroke-linecap: butt; stroke-dashoffset: 0; stroke-linejoin: miter; stroke-miterlimit: 4; is-custom-font: none; font-file-url: none; fill: rgb(241,250,238); fill-rule: nonzero; opacity: 1;" transform=" translate(-6882.0021, -1953.5)" d="M 7003 2743 c -391 -434 -782 -867 -869 -963 c -87 -96 -392 -434 -678 -750 c -285 -316 -535 -593 -555 -614 l -36 -39 l 40 23 c 65 37 305 178 690 405 c 380 224 1129 664 1960 1152 c 275 162 690 405 922 541 c 232 136 422 249 422 252 c 1 3 -177 122 -394 265 c -217 143 -482 317 -587 387 c -106 70 -195 127 -198 128 c -3 0 -325 -354 -717 -787 z m 718 83 c 178 -85 329 -156 335 -158 c 6 -2 58 34 117 79 l 105 83 l 42 -27 l 42 -28 l -39 -29 c -76 -60 -123 -115 -123 -146 c 0 -16 5 -32 10 -35 c 18 -11 11 -21 -51 -64 l -60 -43 l -52 21 c -29 11 -227 84 -442 162 c -214 78 -392 143 -394 145 c -5 5 169 194 178 194 c 4 0 153 -69 332 -154 z m -335 -391 c 166 -29 306 -76 349 -119 c 56 -56 16 -126 -110 -193 c -82 -43 -285 -91 -285 -66 c 1 17 98 73 142 81 c 97 19 146 73 96 106 c -37 24 -119 47 -117 33 c 6 -51 -39 -98 -137 -144 c -76 -34 -210 -63 -300 -63 c -148 0 -305 45 -340 97 c -43 66 47 182 181 232 c 135 51 349 65 521 36 z" stroke-linecap="round"/>
</g>
		<g transform="matrix(0.1333 0 0 -0.1333 335.834 404.1121)">
<path style="stroke: none; stroke-width: 1; stroke-dasharray: none; stroke-linecap: butt; stroke-dashoffset: 0; stroke-linejoin: miter; stroke-miterlimit: 4; is-custom-font: none; font-file-url: none; fill: rgb(241,250,238); fill-rule: nonzero; opacity: 1;" transform=" translate(-7118.8076, -2249.1393)" d="M 7025 2321 c -107 -27 -149 -93 -82 -127 c 47 -25 207 -31 278 -11 c 67 20 119 68 103 95 c -21 33 -66 46 -169 49 c -55 1 -113 -1 -130 -6 z" stroke-linecap="round"/>
</g>
</g>
</g>
</svg>